# xmcd
#
# Track frame offsets: 
#        150
#        29073
#        51297
#        77595
#        106467
#        126634
#        152779
#        176951
#        198921
#
# Disc length: 3050 seconds
#
# Revision: 1
# Processed by: cddbd v1.5.2PL0 Copyright (c) Steve Scherf et al.
# Submitted via: ExactAudioCopy v1.0b4
#
DISCID=810be809
DTITLE=indigo jam unit - Roots
DYEAR=2011
DGENRE=Jazz
TTITLE0=Roots
TTITLE1=Monkey Trick
TTITLE2=Voyager
TTITLE3=Rain Man
TTITLE4=Un*Sampling
TTITLE5=Anima
TTITLE6=Misty Grove
TTITLE7=La Tomatina
TTITLE8=Silhouette
EXTD=YEAR: 2011
EXTT0=
EXTT1=
EXTT2=
EXTT3=
EXTT4=
EXTT5=
EXTT6=
EXTT7=
EXTT8=
PLAYORDER=
